<svg width="353" height="356" viewBox="0 0 353 356" fill="none" xmlns="http://www.w3.org/2000/svg">
  <g filter="url(#filter0_d)">
    <path d="M275.058 51.3932C276.479 51.3817 277.901 51.3703 279.365 51.3585C285.739 51.539 289.497 51.6631 294.765 55.4717C298.332 60.8918 298.22 63.8671 297.059 70.254C294.758 73.7206 292.202 76.5688 289.314 79.5549C286.066 82.9475 282.976 86.4294 279.89 89.9718C268.765 102.47 256.967 114.314 245.243 126.238C243.999 127.503 242.755 128.768 241.474 130.071C234.91 136.744 228.339 143.41 221.764 150.073C216.338 155.574 210.926 161.089 205.526 166.615C198.973 173.321 192.398 180.002 185.805 186.667C183.305 189.202 180.813 191.745 178.33 194.297C174.865 197.854 171.371 201.38 167.868 204.9C166.854 205.955 165.84 207.01 164.795 208.098C158.511 214.333 154.262 217.016 145.049 217.106C141.999 215.587 141.999 215.587 139.449 212.971C138.388 211.931 137.328 210.891 136.236 209.819C134.92 208.496 133.604 207.173 132.248 205.81C130.392 204.063 128.529 202.324 126.66 200.591C90.9371 167.442 90.9371 167.442 90.1454 157.7C90.227 152.654 90.6432 150.946 93.2456 146.403C98.8154 141.23 103.811 138.592 111.247 137.124C125.621 139.734 136.868 155.275 146.649 165.466C155.656 157.904 163.988 149.837 172.251 141.461C173.48 140.228 174.709 138.994 175.976 137.723C181.507 132.136 186.915 126.523 192.002 120.52C200.337 110.756 209.614 101.874 218.702 92.8318C229.132 82.4403 239.446 72.045 248.507 60.3875C255.752 51.3824 264.287 51.4628 275.058 51.3932Z" fill="#009D74"/>
    <path d="M267.464 134.004C269.439 134.002 269.439 134.002 271.455 134.001C272.809 134.033 274.163 134.065 275.558 134.098C277.599 134.081 277.599 134.081 279.68 134.064C285.463 134.123 289.541 134.207 294.703 136.967C300.185 143.199 298.896 151.231 298.892 159.059C298.897 160.549 298.903 162.04 298.908 163.576C298.924 168.512 298.927 173.447 298.928 178.382C298.934 181.805 298.939 185.227 298.945 188.65C298.954 195.825 298.957 203 298.956 210.175C298.956 219.388 298.978 228.601 299.005 237.814C299.023 244.881 299.026 251.948 299.026 259.015C299.027 262.413 299.035 265.811 299.047 269.209C299.062 273.95 299.058 278.691 299.048 283.432C299.057 284.846 299.066 286.261 299.076 287.718C299.025 297.426 299.025 297.426 295.459 301.022C288.172 303.485 280.554 302.933 272.958 302.938C270.772 302.968 270.772 302.968 268.542 302.998C266.443 303.003 266.443 303.003 264.301 303.008C263.026 303.014 261.751 303.021 260.438 303.028C257.057 302.636 257.057 302.636 252.257 299.408C251.756 294.377 251.568 289.664 251.585 284.627C251.571 283.094 251.558 281.562 251.544 279.983C251.506 274.896 251.505 269.811 251.507 264.725C251.495 261.199 251.483 257.674 251.47 254.148C251.448 246.749 251.446 239.35 251.455 231.951C251.464 222.461 251.416 212.972 251.351 203.483C251.309 196.198 251.305 188.913 251.311 181.629C251.308 178.13 251.292 174.631 251.264 171.132C251.229 166.24 251.244 161.351 251.272 156.459C251.251 155.008 251.23 153.558 251.208 152.063C251.34 142.246 251.34 142.246 256.094 137.133C260.347 134.754 262.659 133.992 267.464 134.004Z" fill="#009D74"/>
    <path d="M193.847 200.159C195.4 200.162 196.953 200.165 198.553 200.168C200.249 200.167 201.944 200.166 203.691 200.165C206.346 200.214 206.346 200.214 209.054 200.263C210.824 200.252 212.593 200.24 214.417 200.228C227.387 200.332 227.387 200.332 230.865 202.884C233.863 206.888 233.675 209.562 233.702 214.553C233.722 216.341 233.743 218.129 233.764 219.972C233.759 221.903 233.754 223.835 233.749 225.825C233.758 227.809 233.766 229.792 233.775 231.836C233.788 237.111 233.776 242.384 233.758 247.659C233.754 253.015 233.81 258.37 233.852 263.726C233.855 267.802 233.854 271.877 233.849 275.952C233.867 277.881 233.885 279.809 233.904 281.796C233.881 284.485 233.881 284.485 233.858 287.229C233.858 288.806 233.858 290.382 233.858 292.007C232.83 297.355 230.817 299.275 226.655 302.636C221.444 303.914 216.203 303.61 210.854 303.544C209.437 303.582 208.02 303.621 206.56 303.661C205.176 303.657 203.792 303.654 202.366 303.651C201.116 303.652 199.867 303.653 198.579 303.655C192.574 302.097 188.449 299.765 185.052 294.567C183.664 288.026 183.821 281.61 183.946 274.944C183.948 273.036 183.95 271.129 183.953 269.163C183.967 265.136 184.005 261.109 184.064 257.082C184.152 250.911 184.163 244.745 184.162 238.574C184.185 234.661 184.213 230.747 184.246 226.833C184.251 224.986 184.257 223.138 184.262 221.235C184.293 219.517 184.324 217.799 184.355 216.028C184.373 214.519 184.392 213.01 184.411 211.454C185.408 205.194 187.543 201.437 193.847 200.159Z" fill="#009D74"/>
    <path d="M66.9944 211.622C68.6177 211.616 70.241 211.61 71.9135 211.603C73.6069 211.622 75.3003 211.641 77.0451 211.66C78.7385 211.641 80.4319 211.623 82.1767 211.603C84.6116 211.613 84.6116 211.613 87.0957 211.622C89.3249 211.631 89.3249 211.631 91.5991 211.639C96.2696 212.399 97.3943 213.364 100.247 217.107C100.856 220.792 100.856 220.792 100.868 225.16C100.883 226.797 100.898 228.434 100.914 230.121C100.904 231.886 100.894 233.651 100.884 235.469C100.889 237.282 100.893 239.094 100.898 240.961C100.901 244.793 100.892 248.626 100.872 252.458C100.847 258.341 100.872 264.222 100.903 270.106C100.9 273.824 100.894 277.542 100.884 281.26C100.899 283.913 100.899 283.913 100.914 286.619C100.898 288.251 100.883 289.883 100.868 291.564C100.864 293.004 100.86 294.445 100.856 295.929C100.655 297.077 100.454 298.225 100.247 299.409C93.1113 304.206 86.3403 303.23 77.9451 303.241C76.3414 303.281 74.7377 303.32 73.0854 303.361C71.5395 303.367 69.9935 303.373 68.4008 303.38C66.99 303.393 65.5793 303.406 64.1259 303.42C60.244 302.636 60.244 302.636 56.5836 300.472C52.1599 293.544 52.9635 286.487 53.0498 278.423C53.0474 276.689 53.0451 274.954 53.0427 273.167C53.0454 269.503 53.0639 265.839 53.097 262.176C53.1434 256.558 53.13 250.943 53.1091 245.325C53.1191 241.767 53.1325 238.208 53.1498 234.65C53.1451 232.966 53.1404 231.281 53.1355 229.546C53.1558 227.984 53.1761 226.422 53.197 224.813C53.2057 223.438 53.2143 222.064 53.2232 220.647C54.6362 212.582 59.6821 211.649 66.9944 211.622Z" fill="#009D74"/>
    <path d="M142.549 240.507C145.069 240.438 145.069 240.438 147.64 240.368C150.067 240.362 150.067 240.362 152.543 240.355C154.76 240.338 154.76 240.338 157.021 240.321C161.05 241.313 161.05 241.313 164.725 244.758C169.695 253.191 168.432 262.408 168.351 271.975C168.389 274.026 168.427 276.077 168.466 278.19C168.443 292.748 168.443 292.748 164.507 299.964C156.919 303.974 150.084 303.686 141.649 303.443C139.245 303.45 139.245 303.45 136.792 303.456C125.335 303.301 125.335 303.301 121.394 300.893C118.373 296.085 118.824 291.836 118.81 286.196C118.805 285.068 118.801 283.94 118.796 282.778C118.793 280.396 118.801 278.015 118.821 275.633C118.847 271.988 118.822 268.345 118.791 264.7C118.794 262.385 118.8 260.069 118.81 257.754C118.815 255.646 118.821 253.539 118.826 251.368C119.447 246.155 119.447 246.155 121.369 243.056C127.61 239.277 135.484 240.489 142.549 240.507Z" fill="#009D74"/>
  </g>
  <defs>
    <filter id="filter0_d" x="0" y="0" width="353" height="356" filterUnits="userSpaceOnUse" color-interpolation-filters="sRGB">
      <feFlood flood-opacity="0" result="BackgroundImageFix"/>
      <feColorMatrix in="SourceAlpha" type="matrix" values="0 0 0 0 0 0 0 0 0 0 0 0 0 0 0 0 0 0 127 0"/>
      <feOffset dy="4"/>
      <feGaussianBlur stdDeviation="2"/>
      <feColorMatrix type="matrix" values="0 0 0 0 0 0 0 0 0 0 0 0 0 0 0 0 0 0 0.25 0"/>
      <feBlend mode="normal" in2="BackgroundImageFix" result="effect1_dropShadow"/>
      <feBlend mode="normal" in="SourceGraphic" in2="effect1_dropShadow" result="shape"/>
    </filter>
  </defs>
</svg>
