<svg width="800" height="356" viewBox="0 0 800 356" fill="none" xmlns="http://www.w3.org/2000/svg">
  <defs>
    <filter id="shadow" x="-20%" y="-20%" width="140%" height="140%">
      <feDropShadow dx="0" dy="2" stdDeviation="2" flood-color="#000000" flood-opacity="0.25"/>
    </filter>
    <style>
      .adaptive-fill { fill: #273B41; }
      @media (prefers-color-scheme: dark) {
        .adaptive-fill { fill: #FFFFFF; }
      }
    </style>
  </defs>
  <g filter="url(#shadow)">


<path d="M208.986 158.825C209.412 158.825 209.837 158.825 210.276 158.825C210.366 175.51 210.434 192.195 210.476 208.88C210.497 216.627 210.524 224.375 210.568 232.122C210.61 239.6 210.633 247.077 210.643 254.554C210.65 257.406 210.664 260.258 210.685 263.111C210.713 267.107 210.717 271.102 210.715 275.098C210.729 276.276 210.743 277.455 210.757 278.669C210.721 286.193 209.751 291.89 204.471 297.679C199.363 301.656 195.821 303.45 189.389 303.487C188.287 303.496 187.186 303.505 186.052 303.515C184.847 303.518 183.643 303.522 182.402 303.525C181.131 303.534 179.86 303.542 178.55 303.551C174.336 303.576 170.123 303.591 165.91 303.604C163.752 303.612 163.752 303.612 161.551 303.62C153.939 303.647 146.328 303.666 138.716 303.678C130.852 303.692 122.988 303.736 115.124 303.787C109.079 303.821 103.034 303.832 96.9884 303.837C94.0893 303.843 91.1903 303.858 88.2913 303.882C84.2337 303.913 80.1774 303.912 76.1198 303.903C74.9234 303.92 73.727 303.936 72.4943 303.953C65.3088 303.895 61.1827 302.944 55.4851 298.137C51.4975 293.6 50.1691 289.729 50.138 283.736C50.1298 282.66 50.1215 281.584 50.1131 280.475C50.1116 279.318 50.1102 278.161 50.1087 276.969C50.1044 275.778 50.1001 274.587 50.0957 273.36C50.0892 270.844 50.0861 268.327 50.0863 265.811C50.0835 261.949 50.0601 258.088 50.0356 254.227C50.0319 251.784 50.0293 249.341 50.0281 246.898C50.0142 245.159 50.0142 245.159 50 243.384C50.004 242.312 50.0079 241.24 50.012 240.136C50.0102 239.191 50.0083 238.246 50.0065 237.272C50.3254 234.931 50.3254 234.931 52.9052 232.351C59.4595 232.42 63.1518 236.584 67.5781 240.897C68.6922 241.954 68.6922 241.954 69.8289 243.032C73.6222 246.645 77.3543 250.316 81.0417 254.038C81.7151 254.711 82.3885 255.385 83.0824 256.079C84.6243 257.62 86.1503 259.178 87.6677 260.744C88.5406 261.591 89.4136 262.437 90.313 263.309C91.0845 264.081 91.8561 264.852 92.651 265.647C97.0609 268.041 99.7499 267.225 104.502 265.889C107.536 263.665 109.939 261.594 112.564 258.956C113.741 257.816 113.741 257.816 114.942 256.652C117.935 253.735 120.892 250.782 123.851 247.83C125.233 246.462 126.617 245.095 128 243.729C132.646 239.139 137.281 234.539 141.91 229.932C142.671 229.175 143.432 228.418 144.216 227.638C151.604 220.275 158.911 212.931 165.683 204.99C169.371 200.789 173.393 196.92 177.383 193.008C183.176 187.277 188.826 181.537 194.081 175.302C197.268 171.667 200.743 168.33 204.214 164.968C206.652 162.575 206.652 162.575 208.986 158.825Z" fill="#01906C"/>
<path d="M121.274 96.9088C124.723 96.4285 124.723 96.4285 129.054 96.4402C130.605 96.441 132.157 96.4418 133.755 96.4427C136.197 96.4739 136.197 96.4739 138.688 96.5057C141.13 96.4995 141.13 96.4995 143.621 96.4931C155.758 96.5646 155.758 96.5646 158.682 99.4886C159.096 102.82 159.096 102.82 159.221 107.094C159.295 109.491 159.295 109.491 159.371 111.938C159.41 113.695 159.445 115.452 159.478 117.21C159.495 118.097 159.512 118.985 159.53 119.899C159.614 124.611 159.677 129.322 159.727 134.033C159.773 137.908 159.862 141.777 159.992 145.649C161.155 181.245 161.155 181.245 153.623 190.317C150.357 193.496 146.886 196.12 143.203 198.813C141.191 200.881 139.222 202.993 137.313 205.157C135.595 206.993 133.877 208.829 132.158 210.664C130.835 212.087 130.835 212.087 129.485 213.539C128.636 214.444 127.787 215.349 126.913 216.282C126.167 217.081 125.421 217.879 124.652 218.702C122.564 220.742 122.564 220.742 118.694 223.321C118.635 207.411 118.589 191.5 118.561 175.589C118.547 168.201 118.529 160.814 118.5 153.426C118.472 146.301 118.456 139.175 118.45 132.049C118.445 129.327 118.436 126.604 118.422 123.882C118.403 120.077 118.4 116.272 118.402 112.467C118.392 111.335 118.383 110.203 118.373 109.037C118.4 101.22 118.4 101.22 121.274 96.9088Z" fill="#01906C"/>
<path d="M172.871 50.4715C176.32 49.9913 176.32 49.9913 180.651 50.0029C182.202 50.0038 183.754 50.0046 185.352 50.0054C187.794 50.0366 187.794 50.0366 190.285 50.0684C192.727 50.0622 192.727 50.0622 195.218 50.0558C207.355 50.1274 207.355 50.1274 210.279 53.0514C210.659 56.2304 210.659 56.2304 210.736 60.2852C210.769 61.8012 210.802 63.3172 210.836 64.8791C210.865 67.35 210.865 67.35 210.894 69.8708C210.925 72.4054 210.925 72.4054 210.957 74.9912C210.996 78.5762 211.021 82.161 211.04 85.746C211.069 90.3187 211.158 94.8881 211.26 99.4596C211.344 103.839 211.356 108.219 211.377 112.6C211.423 114.231 211.468 115.863 211.514 117.544C211.475 125.591 211.182 130.547 205.338 136.394C203.554 137.862 201.761 139.32 199.96 140.766C198.393 142.482 196.856 144.225 195.364 146.007C191.813 150.138 188.073 153.976 184.183 157.787C180.872 161.164 177.829 164.755 174.781 168.369C172.871 170.434 172.871 170.434 170.291 171.724C170.232 156.486 170.186 141.248 170.158 126.01C170.144 118.935 170.126 111.86 170.097 104.785C170.069 97.9599 170.053 91.1352 170.047 84.3104C170.042 81.7033 170.032 79.0963 170.019 76.4893C170 72.8448 169.997 69.2006 169.998 65.556C169.989 64.4723 169.98 63.3886 169.97 62.2721C169.988 57.2346 170.012 54.7603 172.871 50.4715Z" fill="#018F6C"/>
<path d="M78.2606 138.964C79.6856 138.959 81.1106 138.954 82.5788 138.948C84.067 138.963 85.5552 138.978 87.0885 138.994C89.3208 138.971 89.3208 138.971 91.5982 138.948C93.0232 138.953 94.4482 138.958 95.9164 138.964C97.2225 138.968 98.5286 138.972 99.8743 138.977C103.213 139.478 103.213 139.478 105.323 140.889C107.98 144.602 107.584 147.704 107.603 152.23C107.612 153.128 107.621 154.027 107.63 154.952C107.654 157.922 107.649 160.89 107.642 163.86C107.647 165.925 107.654 167.989 107.662 170.053C107.674 174.381 107.67 178.708 107.658 183.036C107.643 188.581 107.669 194.126 107.707 199.671C107.73 203.934 107.73 208.198 107.723 212.462C107.722 214.506 107.73 216.55 107.746 218.595C107.765 221.454 107.752 224.312 107.729 227.172C107.729 228.799 107.729 230.425 107.729 232.102C106.97 236.937 105.831 238.517 101.923 241.382C96.8443 241.271 94.1247 239.438 90.4745 236.061C89.1476 234.843 89.1476 234.843 87.7939 233.602C84.5693 230.5 81.4118 227.34 78.2807 224.144C76.1937 222.101 74.037 220.245 71.7706 218.405C68.3846 215.583 68.3846 215.583 67.0946 213.003C66.9582 210.798 66.9027 208.587 66.8868 206.378C66.8744 204.996 66.862 203.614 66.8492 202.19C66.8438 200.692 66.8383 199.194 66.8326 197.65C66.8253 196.117 66.8179 194.584 66.8103 193.004C66.7981 189.756 66.7897 186.509 66.7848 183.261C66.7722 178.281 66.7322 173.302 66.6915 168.322C66.6831 165.172 66.6763 162.022 66.6714 158.872C66.6555 157.376 66.6395 155.881 66.6231 154.34C66.6289 152.261 66.6289 152.261 66.6349 150.14C66.6278 148.308 66.6278 148.308 66.6206 146.44C67.0946 143.347 67.0946 143.347 68.8496 141.019C71.9643 138.749 74.4422 138.976 78.2606 138.964Z" fill="#04906D"/>
<path d="M119.984 99.4889C120.409 99.4889 120.835 99.4889 121.274 99.4889C121.699 138.225 122.125 176.962 122.563 216.872C124.479 215.595 124.479 215.595 126.433 214.292C124.618 218.679 122.526 220.603 118.694 223.322C118.664 207.366 118.641 191.411 118.627 175.456C118.62 168.048 118.611 160.64 118.596 153.232C118.582 146.089 118.575 138.947 118.571 131.804C118.569 129.073 118.564 126.341 118.557 123.61C118.548 119.798 118.547 115.986 118.547 112.174C118.543 111.033 118.538 109.892 118.533 108.716C118.547 100.926 118.547 100.926 119.984 99.4889Z" fill="#1F916E"/>
<path d="M171.581 51.7617C172.432 52.1874 173.283 52.6131 174.161 53.0516C174.25 68.1437 174.319 83.2357 174.361 98.328C174.381 105.335 174.409 112.343 174.452 119.35C174.494 126.108 174.518 132.865 174.528 139.623C174.535 142.206 174.549 144.789 174.57 147.372C174.598 150.98 174.602 154.587 174.6 158.195C174.621 159.809 174.621 159.809 174.642 161.456C174.626 164.427 174.626 164.427 174.161 169.145C172.245 170.422 172.245 170.422 170.291 171.725C170.261 156.464 170.238 141.204 170.224 125.944C170.217 118.858 170.208 111.773 170.193 104.688C170.179 97.8545 170.172 91.0214 170.168 84.1882C170.166 81.5766 170.161 78.9649 170.154 76.3532C170.145 72.7054 170.144 69.0577 170.144 65.4098C170.14 64.3215 170.135 63.2332 170.13 62.1118C170.144 54.6358 170.144 54.6358 171.581 51.7617Z" fill="#209571"/>
<path d="M183.189 187.204C183.615 188.055 184.041 188.906 184.479 189.784C178.459 195.803 172.44 201.823 166.42 207.843C165.569 207.417 164.717 206.991 163.84 206.553C170.225 200.167 176.611 193.782 183.189 187.204Z" fill="#097C55"/>
<path d="M741.566 96.5861C749.234 104.705 750.202 112.983 749.97 123.795C749.963 125.098 749.956 126.4 749.948 127.742C749.92 131.869 749.855 135.995 749.789 140.121C749.763 142.933 749.739 145.744 749.718 148.556C749.662 155.419 749.573 162.282 749.466 169.144C743.933 169.144 738.399 169.144 732.697 169.144C732.272 167.016 731.846 164.888 731.408 162.695C730.476 163.493 729.545 164.291 728.586 165.113C719.628 171.882 709.9 171.19 699.159 170.434C693.076 169.054 688.071 165.796 683.68 161.405C680.208 155.178 678.379 149.146 679.811 142.056C682.953 134.683 687.037 130.595 694 126.577C697.27 125.489 700.336 124.593 703.674 123.836C704.562 123.623 705.45 123.411 706.365 123.192C715.065 121.18 723.831 119.89 732.697 118.837C731.095 111.405 731.095 111.405 726.248 105.938C719.771 103.779 713.343 103.608 706.98 106.18C703.669 108.734 703.669 108.734 701.739 114.968C696.205 114.116 690.672 113.265 684.97 112.388C686.451 103.504 688.624 100.056 695.29 94.3288C710.197 84.9824 727.242 87.8676 741.566 96.5861Z" class="adaptive-fill"/>
<path d="M483.742 93.0388C490.084 97.2382 493.79 101.375 496.641 108.518C497.162 113.196 497.092 117.834 497.019 122.536C497.014 123.871 497.008 125.205 497.003 126.58C496.981 130.826 496.932 135.07 496.883 139.315C496.864 142.2 496.846 145.086 496.83 147.971C496.788 155.029 496.721 162.087 496.641 169.144C491.107 169.144 485.574 169.144 479.872 169.144C479.234 166.59 479.234 166.59 478.582 163.985C477.146 164.809 475.709 165.634 474.229 166.484C464.933 171.821 453.36 172.24 442.903 169.553C436.963 166.794 433.297 162.85 429.565 157.535C427.695 151.923 427.616 146.631 428.275 140.766C432.412 132.492 437.966 128.354 446.495 125.206C457.346 121.766 468.628 120.39 479.872 118.837C479.5 117.188 479.127 115.538 478.743 113.839C478.534 112.911 478.324 111.983 478.109 111.027C477.415 108.251 477.415 108.251 474.712 105.938C467.766 103.622 460.91 103.474 454.074 106.18C450.851 108.757 450.851 108.757 448.914 114.968C443.806 114.542 438.698 114.116 433.435 113.678C431.988 109.337 432.134 108.815 433.999 104.89C437.863 97.6304 443.764 93.2919 451.317 90.2726C461.842 87.4021 473.979 87.9477 483.742 93.0388Z" class="adaptive-fill"/>
<path d="M358.71 228.899C363.749 232.915 366.515 236.608 368.939 242.67C369.461 247.348 369.39 251.985 369.317 256.687C369.312 258.022 369.306 259.357 369.3 260.732C369.279 264.977 369.23 269.222 369.181 273.467C369.162 276.352 369.144 279.238 369.128 282.123C369.086 289.181 369.019 296.238 368.939 303.296C363.405 303.296 357.872 303.296 352.17 303.296C351.744 301.168 351.319 299.039 350.88 296.846C349.949 297.645 349.018 298.443 348.058 299.265C338.864 306.212 328.347 305.665 317.342 304.586C309.682 301.888 304.199 296.358 300.573 289.107C299.897 282.327 299.715 276.665 302.75 270.484C313.413 258.668 329.101 255.931 344.431 254.279C347.01 254.243 349.591 254.233 352.17 254.279C350.834 246.106 350.834 246.106 345.72 240.09C339.518 238.022 333.891 237.804 327.903 240.332C324.747 242.947 323.075 245.491 321.212 249.119C318.9 248.972 316.589 248.808 314.279 248.635C312.348 248.501 312.348 248.501 310.379 248.363C307.023 247.829 307.023 247.829 304.443 245.249C308.923 234.616 313.091 229.237 323.389 224.208C335.223 221.751 348.3 222.24 358.71 228.899Z" class="adaptive-fill"/>
<path d="M658.284 95.4572C663.151 99.3051 667.443 103.852 669.491 109.808C669.007 113.355 669.007 113.355 668.201 116.257C662.513 117.679 657.257 117.646 651.432 117.547C650.633 115.751 650.633 115.751 649.819 113.919C647.537 109.763 646.399 108.285 642.402 105.938C635.593 104.898 629.112 104.776 622.973 108.034C617.3 114.988 615.919 120.938 616.039 129.64C616.048 130.611 616.057 131.583 616.066 132.583C616.281 139.987 617.266 145.008 621.763 151.085C626.4 155.325 630.916 155.554 636.965 155.323C641.196 154.778 644.062 153.502 647.562 151.085C648.079 149.981 648.596 148.877 649.129 147.739C649.889 146.715 650.649 145.691 651.432 144.636C655.76 144.006 655.76 144.006 660.703 144.232C662.344 144.291 663.985 144.349 665.676 144.409C667.564 144.521 667.564 144.521 669.491 144.636C668.309 153.046 665.591 157.678 659.413 163.581C653.444 167.912 648.666 170.434 641.112 170.434C642.838 175.612 645.658 176.535 650.142 179.464C653.37 184.307 652.975 186.584 652.223 192.156C651.016 196.405 648.725 197.964 644.982 200.102C640.128 201.72 635.601 201.53 630.551 201.473C629.584 201.467 628.617 201.461 627.621 201.455C625.238 201.44 622.856 201.417 620.473 201.392C620.899 198.413 621.325 195.433 621.763 192.363C628.787 191.724 628.787 191.724 635.952 191.073C635.527 189.37 635.101 187.667 634.663 185.913C630.798 184.23 630.798 184.23 626.923 183.333C626.762 174.788 626.762 174.788 628.213 170.434C626.936 170.354 625.659 170.274 624.343 170.192C615.486 168.886 608.268 163.232 602.828 156.32C595.238 144.488 593.951 131.145 596.771 117.522C599.98 107.279 605.721 99.425 614.679 93.4669C629.12 85.9516 644.448 87.6253 658.284 95.4572Z" class="adaptive-fill"/>
<path d="M400.461 91.8291C407.519 95.8124 411.498 100.754 414.086 108.518C414.198 110.517 414.237 112.52 414.232 114.522C414.232 115.736 414.232 116.949 414.232 118.199C414.225 119.506 414.218 120.812 414.212 122.157C414.21 123.498 414.208 124.838 414.206 126.219C414.199 130.503 414.183 134.788 414.166 139.073C414.16 141.976 414.154 144.879 414.149 147.782C414.134 154.903 414.112 162.023 414.086 169.144C408.552 169.144 403.018 169.144 397.317 169.144C397.298 167.615 397.279 166.085 397.26 164.51C397.185 158.824 397.085 153.139 396.978 147.454C396.935 144.995 396.899 142.537 396.87 140.078C396.826 136.539 396.759 133.002 396.687 129.464C396.678 128.368 396.67 127.273 396.662 126.145C396.509 119.976 395.856 116.257 392.157 111.097C392.157 110.246 392.157 109.395 392.157 108.518C386.416 106.68 381.471 105.161 375.388 105.938C369.687 108.956 366.479 111.707 363.779 117.547C363.188 121.517 363.149 125.455 363.118 129.464C363.095 130.6 363.072 131.736 363.048 132.906C362.979 136.52 362.935 140.134 362.892 143.749C362.849 146.205 362.804 148.661 362.758 151.118C362.649 157.126 362.563 163.135 362.489 169.144C356.529 169.144 350.57 169.144 344.43 169.144C344.43 143.178 344.43 117.212 344.43 90.4586C350.389 90.4586 356.349 90.4586 362.489 90.4586C362.914 92.587 363.34 94.7153 363.779 96.9082C364.479 96.4576 365.179 96.007 365.9 95.5427C366.823 94.9557 367.746 94.3688 368.696 93.764C369.609 93.1804 370.522 92.5967 371.463 91.9954C380.181 86.9113 391.522 87.7354 400.461 91.8291Z" class="adaptive-fill"/>
<path d="M568.151 91.3467C575.674 95.8103 580.629 101.321 583.066 109.809C583.566 114.438 583.518 119.019 583.444 123.67C583.438 124.975 583.433 126.279 583.427 127.623C583.406 131.763 583.357 135.902 583.308 140.041C583.288 142.859 583.271 145.676 583.255 148.494C583.212 155.378 583.146 162.262 583.066 169.145C577.532 169.145 571.998 169.145 566.297 169.145C566.278 167.662 566.259 166.178 566.24 164.65C566.165 159.125 566.065 153.601 565.958 148.077C565.915 145.69 565.879 143.303 565.85 140.916C565.806 137.476 565.739 134.038 565.667 130.599C565.659 129.538 565.65 128.478 565.642 127.385C565.479 120.966 564.403 116.783 561.137 111.099C561.137 110.247 561.137 109.396 561.137 108.519C554.001 105.991 549.228 105.549 541.788 107.229C535.943 110.66 534.443 113.694 532.759 120.128C532.359 123.953 532.28 127.763 532.225 131.606C532.2 132.684 532.175 133.761 532.149 134.87C532.072 138.287 532.012 141.704 531.953 145.12C531.903 147.447 531.853 149.773 531.801 152.099C531.678 157.781 531.569 163.463 531.469 169.145C525.509 169.145 519.55 169.145 513.41 169.145C513.41 143.179 513.41 117.213 513.41 90.4599C519.369 90.4599 525.329 90.4599 531.469 90.4599C531.895 92.5883 532.32 94.7167 532.759 96.9095C533.459 96.4589 534.159 96.0083 534.88 95.544C535.803 94.9571 536.726 94.3701 537.677 93.7653C538.589 93.1817 539.502 92.5981 540.443 91.9967C548.442 87.3319 559.847 87.4167 568.151 91.3467Z" class="adaptive-fill"/>
<path d="M444.156 229.529C451.223 235.281 454.729 240.378 456.653 249.119C450.036 251.834 444.319 251.98 437.304 251.699C436.798 250.502 436.293 249.305 435.772 248.071C433.119 243.407 431.964 241.997 426.984 240.09C421.171 239.4 415.961 239.478 410.376 241.299C404.266 247.23 402.167 254.357 401.992 262.744C402.376 271.907 403.452 279.764 410.215 286.527C414.808 289.972 420.182 289.787 425.694 289.107C429.996 287.763 429.996 287.763 433.434 285.237C433.939 284.093 434.445 282.949 434.966 281.771C437.304 278.788 437.304 278.788 440.508 278.284C446.592 278.187 451.314 278.225 456.653 281.367C452.075 291.674 446.575 298.441 436.2 303.357C426.045 306.435 413.403 306.495 403.524 302.409C392.684 296.394 386.211 288.244 382.724 276.369C379.887 262.459 382.208 249.775 389.818 237.752C403.299 220.496 426.059 219.626 444.156 229.529Z" class="adaptive-fill"/>
<path d="M294.123 58.2119C294.123 62.4686 294.123 66.7254 294.123 71.1111C292.34 71.1909 290.558 71.2707 288.721 71.353C284.256 71.8804 282.506 72.406 278.644 74.9809C275.115 80.2738 275.057 84.1423 274.774 90.46C280.733 90.46 286.693 90.46 292.833 90.46C292.833 95.5681 292.833 100.676 292.833 105.939C286.873 105.939 280.914 105.939 274.774 105.939C274.774 126.797 274.774 147.655 274.774 169.145C268.814 169.145 262.855 169.145 256.715 169.145C256.715 148.287 256.715 127.429 256.715 105.939C253.31 105.939 249.904 105.939 246.396 105.939C246.396 100.831 246.396 95.7229 246.396 90.46C249.801 90.46 253.206 90.46 256.715 90.46C256.742 88.8238 256.742 88.8238 256.77 87.1546C257.168 77.7015 257.845 70.4688 264.454 63.3716C272.819 55.936 283.561 57.7554 294.123 58.2119Z" class="adaptive-fill"/>
<path d="M285.496 192.202C287.114 192.226 288.732 192.249 290.399 192.273C292.242 192.318 292.242 192.318 294.123 192.364C294.123 196.62 294.123 200.877 294.123 205.263C290.889 205.809 287.656 206.355 284.423 206.9C280.849 207.953 279.507 208.698 277.354 211.712C276.337 214.93 276.337 214.93 275.822 218.404C275.476 220.452 275.13 222.501 274.774 224.612C280.733 224.612 286.693 224.612 292.833 224.612C292.833 229.72 292.833 234.828 292.833 240.091C286.873 240.091 280.914 240.091 274.774 240.091C274.774 260.949 274.774 281.807 274.774 303.297C268.814 303.297 262.855 303.297 256.715 303.297C256.715 282.439 256.715 261.581 256.715 240.091C253.31 240.091 249.904 240.091 246.396 240.091C246.396 234.983 246.396 229.875 246.396 224.612C250.227 224.612 254.058 224.612 258.005 224.612C257.96 223.584 257.915 222.556 257.869 221.498C257.508 207.361 257.508 207.361 261.875 201.393C269.502 194.098 275.019 192.006 285.496 192.202Z" class="adaptive-fill"/>
<path d="M504.38 194.943C510.34 194.943 516.299 194.943 522.439 194.943C522.439 230.7 522.439 266.457 522.439 303.297C516.48 303.297 510.52 303.297 504.38 303.297C504.38 267.54 504.38 231.784 504.38 194.943Z" class="adaptive-fill"/>
<path d="M469.552 224.612C475.512 224.612 481.471 224.612 487.611 224.612C487.611 250.578 487.611 276.544 487.611 303.297C481.652 303.297 475.692 303.297 469.552 303.297C469.552 277.331 469.552 251.365 469.552 224.612Z" class="adaptive-fill"/>
<path d="M309.602 90.4594C315.136 90.4594 320.669 90.4594 326.371 90.4594C326.371 116.426 326.371 142.392 326.371 169.145C320.837 169.145 315.303 169.145 309.602 169.145C309.602 143.179 309.602 117.212 309.602 90.4594Z" class="adaptive-fill"/>
<path d="M732.697 131.737C733.157 138.204 733.423 143.157 730.52 149.07C724.661 155.563 719.364 157.203 710.93 158.019C706.87 157.951 704.396 157.262 701.094 154.875C697.869 151.086 697.869 151.086 696.902 146.571C697.962 141.625 699.359 140.099 703.269 137.033C707.281 134.587 711.412 133.942 716.009 133.269C716.904 133.113 717.799 132.958 718.722 132.798C723.416 132.017 727.941 131.561 732.697 131.737Z" fill="#F7F8F8"/>
<path d="M479.87 131.737C481.2 145.363 481.2 145.363 476.565 151.167C471.565 156.027 466.805 157.45 459.841 157.611C454.32 157.36 451.138 156.986 446.735 153.505C444.453 148.505 444.627 145.977 446.332 140.767C451.902 136.252 456.829 134.621 463.827 133.35C465.478 133.037 467.129 132.725 468.83 132.403C472.614 131.854 476.062 131.591 479.87 131.737Z" fill="#F8F9F9"/>
<path d="M352.169 265.889C352.91 280.013 352.91 280.013 348.3 285.238C340.878 290.923 335.676 292.341 326.371 291.688C321.806 289.557 320.165 288.184 317.341 283.948C317.341 279.514 317.341 279.514 318.631 274.919C324.604 269.909 330.106 268.597 337.577 267.502C339.045 267.26 339.045 267.26 340.542 267.013C344.455 266.384 348.201 265.889 352.169 265.889Z" fill="#F8F9F9"/>
<path d="M344.43 90.4594C350.389 90.4594 356.349 90.4594 362.489 90.4594C362.489 93.0134 362.489 95.5675 362.489 98.1989C362.063 96.4962 361.637 94.7935 361.199 93.0392C356.516 93.0392 351.834 93.0392 347.01 93.0392C347.01 117.728 347.01 142.418 347.01 167.855C351.266 167.855 355.523 167.855 359.909 167.855C359.878 165.668 359.878 165.668 359.847 163.437C359.777 158.023 359.733 152.61 359.696 147.196C359.677 144.854 359.65 142.511 359.617 140.169C359.57 136.801 359.548 133.433 359.531 130.064C359.511 129.019 359.491 127.973 359.47 126.896C359.468 120.614 359.835 118.936 363.779 113.678C363.353 131.982 362.927 150.286 362.489 169.145C356.529 169.145 350.57 169.145 344.43 169.145C344.43 143.179 344.43 117.212 344.43 90.4594Z" class="adaptive-fill"/>
<path d="M469.552 224.612C475.512 224.612 481.471 224.612 487.611 224.612C487.611 250.578 487.611 276.544 487.611 303.297C481.652 303.297 475.692 303.297 469.552 303.297C469.552 277.331 469.552 251.365 469.552 224.612ZM472.132 227.191C472.132 251.881 472.132 276.57 472.132 302.007C476.815 302.007 481.497 302.007 486.321 302.007C486.321 277.318 486.321 252.629 486.321 227.191C481.639 227.191 476.957 227.191 472.132 227.191Z" class="adaptive-fill"/>
<path d="M513.41 90.4594C519.369 90.4594 525.329 90.4594 531.469 90.4594C531.469 93.0134 531.469 95.5675 531.469 98.1989C531.043 96.4962 530.618 94.7935 530.179 93.0392C525.497 93.0392 520.814 93.0392 515.99 93.0392C515.99 117.728 515.99 142.418 515.99 167.855C520.672 167.855 525.355 167.855 530.179 167.855C530.179 151.253 530.179 134.652 530.179 117.548C530.605 117.548 531.03 117.548 531.469 117.548C531.469 134.575 531.469 151.602 531.469 169.145C525.509 169.145 519.55 169.145 513.41 169.145C513.41 143.179 513.41 117.212 513.41 90.4594Z" class="adaptive-fill"/>
<path d="M321.212 59.5014C325.985 61.3073 325.985 61.3073 327.662 64.6611C328.405 74.0289 328.405 74.0289 325.646 77.5604C321.214 79.3787 318.223 79.517 313.473 78.8503C309.603 76.1898 309.603 76.1898 307.023 72.4007C306.937 67.4317 307.188 64.6631 310.49 60.872C314.347 59.0997 317.005 59.0631 321.212 59.5014Z" class="adaptive-fill"/>
<path d="M485.032 194.944C488.37 197.851 488.827 199.594 489.466 203.973C488.902 207.843 488.902 207.843 486.967 210.906C482.444 213.846 478.674 214.057 473.422 213.003C470.198 210.906 470.198 210.906 468.263 207.843C467.618 203.973 467.618 203.973 468.263 200.103C473.521 193.618 476.955 193.101 485.032 194.944Z" class="adaptive-fill"/>
<path d="M340.56 194.943C346.519 194.943 352.479 194.943 358.619 194.943C356.09 198.436 353.529 201.864 350.879 205.263C349.974 206.455 349.974 206.455 349.05 207.671C346.231 210.973 344.461 212.798 340.071 213.476C336.851 213.486 336.851 213.486 331.531 213.002C334.51 207.043 337.49 201.083 340.56 194.943Z" class="adaptive-fill"/>
<path d="M481.666 91.9417C483.742 93.0401 483.742 93.0401 485.031 95.62C483.608 95.1976 482.185 94.7753 480.718 94.3401C474.176 92.7046 467.875 92.7522 461.168 92.8789C459.984 92.8905 458.8 92.9022 457.58 92.9142C454.691 92.9443 451.802 92.9865 448.914 93.0401C456.673 85.2806 472.306 88.5598 481.666 91.9417Z" class="adaptive-fill"/>
<path d="M277.354 58.2113C282.888 58.2113 288.421 58.2113 294.123 58.2113C294.123 62.4681 294.123 66.7248 294.123 71.1105C289.44 71.5362 284.758 71.9619 279.934 72.4005C280.359 71.5491 280.785 70.6978 281.224 69.8206C284.64 69.055 288.05 68.8634 291.543 68.5307C291.543 65.551 291.543 62.5712 291.543 59.5012C286.861 59.5012 282.178 59.5012 277.354 59.5012C277.354 59.0756 277.354 58.6499 277.354 58.2113Z" class="adaptive-fill"/>
<path d="M383.129 254.28C385.709 256.86 385.709 256.86 385.961 260.498C385.916 262.608 385.916 262.608 385.871 264.76C385.847 266.174 385.824 267.587 385.8 269.043C385.77 270.131 385.74 271.218 385.709 272.339C384.432 272.977 384.432 272.977 383.129 273.629C381.447 270.263 381.668 267.709 381.678 263.954C381.675 262.69 381.672 261.427 381.668 260.125C381.84 256.86 381.84 256.86 383.129 254.28Z" class="adaptive-fill"/>
<path d="M630.793 90.4592C631.219 91.3105 631.644 92.1619 632.083 93.039C631.335 93.1022 630.586 93.1654 629.815 93.2305C623.777 93.8084 618.442 94.7134 612.734 96.9088C618.286 90.8012 622.584 90.1435 630.793 90.4592Z" class="adaptive-fill"/>
<path d="M339.27 198.813C340.56 201.393 340.56 201.393 339.839 204.184C339.465 205.232 339.091 206.279 338.706 207.359C338.335 208.413 337.964 209.467 337.582 210.553C337.141 211.765 337.141 211.765 336.69 213.002C334.988 212.576 333.285 212.151 331.531 211.712C334.085 207.455 336.639 203.199 339.27 198.813Z" class="adaptive-fill"/>
<path d="M466.973 167.854C466.973 168.705 466.973 169.557 466.973 170.434C462.29 170.008 457.608 169.583 452.783 169.144C452.783 168.718 452.783 168.293 452.783 167.854C462.366 166.196 462.366 166.196 466.973 167.854Z" class="adaptive-fill"/>
</g></svg>
